M48
;DRILL file {KiCad 4.0.4-stable} date 10/29/16 17:18:49
;FORMAT={-:-/ absolute / inch / decimal}
FMAT,2
INCH,TZ
T1C0.013
T2C0.031
T3C0.040
%
G90
G05
M72
T1
X1.92Y-2.114
X1.923Y-1.824
X1.985Y-2.238
X2.048Y-2.124
X2.102Y-1.83
X2.138Y-1.722
X2.206Y-2.249
X2.28Y-2.184
X2.33Y-2.044
X2.512Y-1.841
X2.512Y-2.114
X2.746Y-2.231
X3.346Y-2.227
X3.464Y-1.866
T2
X1.5748Y-2.3228
X1.5748Y-2.4016
X1.5748Y-2.4803
X1.5748Y-2.5591
X1.5748Y-2.6378
X1.6535Y-2.3228
X1.6535Y-2.4016
X1.6535Y-2.4803
X1.6535Y-2.5591
X1.6535Y-2.6378
X1.7323Y-2.3228
X1.7323Y-2.4016
X1.7323Y-2.4803
X1.7323Y-2.5591
X1.7323Y-2.6378
X1.811Y-2.3228
X1.811Y-2.4016
X1.811Y-2.4803
X1.811Y-2.5591
X1.811Y-2.6378
X1.8898Y-2.3228
X1.8898Y-2.4016
X1.8898Y-2.4803
X1.8898Y-2.5591
X1.8898Y-2.6378
X1.9685Y-2.3228
X1.9685Y-2.4016
X1.9685Y-2.4803
X1.9685Y-2.5591
X1.9685Y-2.6378
X2.0472Y-2.3228
X2.0472Y-2.4016
X2.0472Y-2.4803
X2.0472Y-2.5591
X2.0472Y-2.6378
X2.126Y-2.3228
X2.126Y-2.4016
X2.126Y-2.4803
X2.126Y-2.5591
X2.126Y-2.6378
X2.2047Y-2.3228
X2.2047Y-2.4016
X2.2047Y-2.4803
X2.2047Y-2.5591
X2.2047Y-2.6378
X2.2835Y-2.3228
X2.2835Y-2.4016
X2.2835Y-2.4803
X2.2835Y-2.5591
X2.2835Y-2.6378
X2.3622Y-2.3228
X2.3622Y-2.4016
X2.3622Y-2.4803
X2.3622Y-2.5591
X2.3622Y-2.6378
X2.4409Y-2.3228
X2.4409Y-2.4016
X2.4409Y-2.4803
X2.4409Y-2.5591
X2.4409Y-2.6378
X2.5197Y-2.3228
X2.5197Y-2.4016
X2.5197Y-2.4803
X2.5197Y-2.5591
X2.5197Y-2.6378
X2.5984Y-2.3228
X2.5984Y-2.4016
X2.5984Y-2.4803
X2.5984Y-2.5591
X2.5984Y-2.6378
X2.6772Y-2.3228
X2.6772Y-2.4016
X2.6772Y-2.4803
X2.6772Y-2.5591
X2.6772Y-2.6378
X2.7559Y-2.3228
X2.7559Y-2.4016
X2.7559Y-2.4803
X2.7559Y-2.5591
X2.7559Y-2.6378
X2.8346Y-2.3228
X2.8346Y-2.4016
X2.8346Y-2.4803
X2.8346Y-2.5591
X2.8346Y-2.6378
X2.9134Y-2.3228
X2.9134Y-2.4016
X2.9134Y-2.4803
X2.9134Y-2.5591
X2.9134Y-2.6378
X2.9921Y-2.3228
X2.9921Y-2.4016
X2.9921Y-2.4803
X2.9921Y-2.5591
X2.9921Y-2.6378
X3.0709Y-2.3228
X3.0709Y-2.4016
X3.0709Y-2.4803
X3.0709Y-2.5591
X3.0709Y-2.6378
X3.1496Y-2.3228
X3.1496Y-2.4016
X3.1496Y-2.4803
X3.1496Y-2.5591
X3.1496Y-2.6378
X3.2283Y-2.3228
X3.2283Y-2.4016
X3.2283Y-2.4803
X3.2283Y-2.5591
X3.2283Y-2.6378
X3.3071Y-2.3228
X3.3071Y-2.4016
X3.3071Y-2.4803
X3.3071Y-2.5591
X3.3071Y-2.6378
X3.3858Y-2.3228
X3.3858Y-2.4016
X3.3858Y-2.4803
X3.3858Y-2.5591
X3.3858Y-2.6378
X3.4646Y-2.3228
X3.4646Y-2.4016
X3.4646Y-2.4803
X3.4646Y-2.5591
X3.4646Y-2.6378
T3
X2.6Y-2.8
X2.66Y-1.75
X2.7Y-2.1
X2.7Y-2.8
X2.76Y-1.75
X2.8Y-2.1
X2.8Y-2.8
X2.86Y-1.75
X2.9Y-2.1
X2.9Y-2.8
X2.96Y-1.75
X3.Y-2.1
X3.Y-2.8
X3.06Y-1.75
X3.1Y-2.8
X3.16Y-1.75
X3.26Y-1.75
X3.45Y-2.07
X3.45Y-2.17
T0
M30
