G04 #@! TF.FileFunction,Soldermask,Bot*
%FSLAX46Y46*%
G04 Gerber Fmt 4.6, Leading zero omitted, Abs format (unit mm)*
G04 Created by KiCad (PCBNEW 4.0.4-stable) date 10/29/16 17:18:15*
%MOMM*%
%LPD*%
G01*
G04 APERTURE LIST*
%ADD10C,0.100000*%
%ADD11R,1.750000X1.750000*%
%ADD12C,1.750000*%
%ADD13R,2.432000X2.432000*%
%ADD14O,2.432000X2.432000*%
%ADD15R,2.127200X2.432000*%
%ADD16O,2.127200X2.432000*%
G04 APERTURE END LIST*
D10*
D11*
X88000000Y-67000000D03*
D12*
X86000000Y-67000000D03*
X84000000Y-67000000D03*
X82000000Y-67000000D03*
X80000000Y-67000000D03*
X78000000Y-67000000D03*
X76000000Y-67000000D03*
X74000000Y-67000000D03*
X72000000Y-67000000D03*
X70000000Y-67000000D03*
X68000000Y-67000000D03*
X66000000Y-67000000D03*
X64000000Y-67000000D03*
X62000000Y-67000000D03*
X60000000Y-67000000D03*
X58000000Y-67000000D03*
X56000000Y-67000000D03*
X54000000Y-67000000D03*
X52000000Y-67000000D03*
X50000000Y-67000000D03*
X48000000Y-67000000D03*
X46000000Y-67000000D03*
X44000000Y-67000000D03*
X42000000Y-67000000D03*
X40000000Y-67000000D03*
X88000000Y-65000000D03*
X86000000Y-65000000D03*
X84000000Y-65000000D03*
X82000000Y-65000000D03*
X80000000Y-65000000D03*
X78000000Y-65000000D03*
X76000000Y-65000000D03*
X74000000Y-65000000D03*
X72000000Y-65000000D03*
X70000000Y-65000000D03*
X68000000Y-65000000D03*
X66000000Y-65000000D03*
X64000000Y-65000000D03*
X62000000Y-65000000D03*
X60000000Y-65000000D03*
X58000000Y-65000000D03*
X56000000Y-65000000D03*
X54000000Y-65000000D03*
X52000000Y-65000000D03*
X50000000Y-65000000D03*
X48000000Y-65000000D03*
X46000000Y-65000000D03*
X44000000Y-65000000D03*
X42000000Y-65000000D03*
X40000000Y-65000000D03*
X40000000Y-59000000D03*
X42000000Y-59000000D03*
X44000000Y-59000000D03*
X46000000Y-59000000D03*
X48000000Y-59000000D03*
X50000000Y-59000000D03*
X52000000Y-59000000D03*
X54000000Y-59000000D03*
X56000000Y-59000000D03*
X58000000Y-59000000D03*
X60000000Y-59000000D03*
X62000000Y-59000000D03*
X64000000Y-59000000D03*
X66000000Y-59000000D03*
X68000000Y-59000000D03*
X70000000Y-59000000D03*
X72000000Y-59000000D03*
X74000000Y-59000000D03*
X76000000Y-59000000D03*
X78000000Y-59000000D03*
X80000000Y-59000000D03*
X82000000Y-59000000D03*
X84000000Y-59000000D03*
X86000000Y-59000000D03*
X88000000Y-59000000D03*
D11*
X88000000Y-63000000D03*
D12*
X86000000Y-63000000D03*
X84000000Y-63000000D03*
X82000000Y-63000000D03*
X80000000Y-63000000D03*
X78000000Y-63000000D03*
X76000000Y-63000000D03*
X74000000Y-63000000D03*
X72000000Y-63000000D03*
X70000000Y-63000000D03*
X68000000Y-63000000D03*
X66000000Y-63000000D03*
X64000000Y-63000000D03*
X62000000Y-63000000D03*
X60000000Y-63000000D03*
X58000000Y-63000000D03*
X56000000Y-63000000D03*
X54000000Y-63000000D03*
X52000000Y-63000000D03*
X50000000Y-63000000D03*
X48000000Y-63000000D03*
X46000000Y-63000000D03*
X44000000Y-63000000D03*
X42000000Y-63000000D03*
X40000000Y-63000000D03*
X88000000Y-61000000D03*
X86000000Y-61000000D03*
X84000000Y-61000000D03*
X82000000Y-61000000D03*
X80000000Y-61000000D03*
X78000000Y-61000000D03*
X76000000Y-61000000D03*
X74000000Y-61000000D03*
X72000000Y-61000000D03*
X70000000Y-61000000D03*
X68000000Y-61000000D03*
X66000000Y-61000000D03*
X64000000Y-61000000D03*
X62000000Y-61000000D03*
X60000000Y-61000000D03*
X58000000Y-61000000D03*
X56000000Y-61000000D03*
X54000000Y-61000000D03*
X52000000Y-61000000D03*
X50000000Y-61000000D03*
X48000000Y-61000000D03*
X46000000Y-61000000D03*
X44000000Y-61000000D03*
X42000000Y-61000000D03*
X40000000Y-61000000D03*
D13*
X87630000Y-52578000D03*
D14*
X87630000Y-55118000D03*
D15*
X68580000Y-53340000D03*
D16*
X71120000Y-53340000D03*
X73660000Y-53340000D03*
X76200000Y-53340000D03*
D15*
X66040000Y-71120000D03*
D16*
X68580000Y-71120000D03*
X71120000Y-71120000D03*
X73660000Y-71120000D03*
X76200000Y-71120000D03*
X78740000Y-71120000D03*
D15*
X67564000Y-44450000D03*
D16*
X70104000Y-44450000D03*
X72644000Y-44450000D03*
X75184000Y-44450000D03*
X77724000Y-44450000D03*
X80264000Y-44450000D03*
X82804000Y-44450000D03*
M02*
