G04 #@! TF.FileFunction,Copper,L2,Bot,Signal*
%FSLAX46Y46*%
G04 Gerber Fmt 4.6, Leading zero omitted, Abs format (unit mm)*
G04 Created by KiCad (PCBNEW 4.0.4-stable) date 10/29/16 17:18:15*
%MOMM*%
%LPD*%
G01*
G04 APERTURE LIST*
%ADD10C,0.100000*%
%ADD11R,1.350000X1.350000*%
%ADD12C,1.350000*%
%ADD13R,2.032000X2.032000*%
%ADD14O,2.032000X2.032000*%
%ADD15R,1.727200X2.032000*%
%ADD16O,1.727200X2.032000*%
%ADD17C,0.685800*%
%ADD18C,0.152400*%
%ADD19C,0.254000*%
G04 APERTURE END LIST*
D10*
D11*
X88000000Y-67000000D03*
D12*
X86000000Y-67000000D03*
X84000000Y-67000000D03*
X82000000Y-67000000D03*
X80000000Y-67000000D03*
X78000000Y-67000000D03*
X76000000Y-67000000D03*
X74000000Y-67000000D03*
X72000000Y-67000000D03*
X70000000Y-67000000D03*
X68000000Y-67000000D03*
X66000000Y-67000000D03*
X64000000Y-67000000D03*
X62000000Y-67000000D03*
X60000000Y-67000000D03*
X58000000Y-67000000D03*
X56000000Y-67000000D03*
X54000000Y-67000000D03*
X52000000Y-67000000D03*
X50000000Y-67000000D03*
X48000000Y-67000000D03*
X46000000Y-67000000D03*
X44000000Y-67000000D03*
X42000000Y-67000000D03*
X40000000Y-67000000D03*
X88000000Y-65000000D03*
X86000000Y-65000000D03*
X84000000Y-65000000D03*
X82000000Y-65000000D03*
X80000000Y-65000000D03*
X78000000Y-65000000D03*
X76000000Y-65000000D03*
X74000000Y-65000000D03*
X72000000Y-65000000D03*
X70000000Y-65000000D03*
X68000000Y-65000000D03*
X66000000Y-65000000D03*
X64000000Y-65000000D03*
X62000000Y-65000000D03*
X60000000Y-65000000D03*
X58000000Y-65000000D03*
X56000000Y-65000000D03*
X54000000Y-65000000D03*
X52000000Y-65000000D03*
X50000000Y-65000000D03*
X48000000Y-65000000D03*
X46000000Y-65000000D03*
X44000000Y-65000000D03*
X42000000Y-65000000D03*
X40000000Y-65000000D03*
X40000000Y-59000000D03*
X42000000Y-59000000D03*
X44000000Y-59000000D03*
X46000000Y-59000000D03*
X48000000Y-59000000D03*
X50000000Y-59000000D03*
X52000000Y-59000000D03*
X54000000Y-59000000D03*
X56000000Y-59000000D03*
X58000000Y-59000000D03*
X60000000Y-59000000D03*
X62000000Y-59000000D03*
X64000000Y-59000000D03*
X66000000Y-59000000D03*
X68000000Y-59000000D03*
X70000000Y-59000000D03*
X72000000Y-59000000D03*
X74000000Y-59000000D03*
X76000000Y-59000000D03*
X78000000Y-59000000D03*
X80000000Y-59000000D03*
X82000000Y-59000000D03*
X84000000Y-59000000D03*
X86000000Y-59000000D03*
X88000000Y-59000000D03*
D11*
X88000000Y-63000000D03*
D12*
X86000000Y-63000000D03*
X84000000Y-63000000D03*
X82000000Y-63000000D03*
X80000000Y-63000000D03*
X78000000Y-63000000D03*
X76000000Y-63000000D03*
X74000000Y-63000000D03*
X72000000Y-63000000D03*
X70000000Y-63000000D03*
X68000000Y-63000000D03*
X66000000Y-63000000D03*
X64000000Y-63000000D03*
X62000000Y-63000000D03*
X60000000Y-63000000D03*
X58000000Y-63000000D03*
X56000000Y-63000000D03*
X54000000Y-63000000D03*
X52000000Y-63000000D03*
X50000000Y-63000000D03*
X48000000Y-63000000D03*
X46000000Y-63000000D03*
X44000000Y-63000000D03*
X42000000Y-63000000D03*
X40000000Y-63000000D03*
X88000000Y-61000000D03*
X86000000Y-61000000D03*
X84000000Y-61000000D03*
X82000000Y-61000000D03*
X80000000Y-61000000D03*
X78000000Y-61000000D03*
X76000000Y-61000000D03*
X74000000Y-61000000D03*
X72000000Y-61000000D03*
X70000000Y-61000000D03*
X68000000Y-61000000D03*
X66000000Y-61000000D03*
X64000000Y-61000000D03*
X62000000Y-61000000D03*
X60000000Y-61000000D03*
X58000000Y-61000000D03*
X56000000Y-61000000D03*
X54000000Y-61000000D03*
X52000000Y-61000000D03*
X50000000Y-61000000D03*
X48000000Y-61000000D03*
X46000000Y-61000000D03*
X44000000Y-61000000D03*
X42000000Y-61000000D03*
X40000000Y-61000000D03*
D13*
X87630000Y-52578000D03*
D14*
X87630000Y-55118000D03*
D15*
X68580000Y-53340000D03*
D16*
X71120000Y-53340000D03*
X73660000Y-53340000D03*
X76200000Y-53340000D03*
D15*
X66040000Y-71120000D03*
D16*
X68580000Y-71120000D03*
X71120000Y-71120000D03*
X73660000Y-71120000D03*
X76200000Y-71120000D03*
X78740000Y-71120000D03*
D15*
X67564000Y-44450000D03*
D16*
X70104000Y-44450000D03*
X72644000Y-44450000D03*
X75184000Y-44450000D03*
X77724000Y-44450000D03*
X80264000Y-44450000D03*
X82804000Y-44450000D03*
D17*
X84988400Y-56565800D03*
X53390800Y-46482000D03*
X50419000Y-56845200D03*
X56032400Y-57124600D03*
X69748400Y-56667400D03*
X57912000Y-55473600D03*
X87985600Y-47396400D03*
X59182000Y-51917600D03*
X52019200Y-53949600D03*
X48768000Y-53695600D03*
X48844200Y-46329600D03*
X54305200Y-43738800D03*
X63804800Y-46761400D03*
X63804800Y-53695600D03*
D18*
X84988400Y-56565800D02*
X84404200Y-55981600D01*
X84404200Y-55981600D02*
X64109600Y-55981600D01*
X64109600Y-55981600D02*
X62966600Y-54838600D01*
X62966600Y-54838600D02*
X62966600Y-47218600D01*
X62966600Y-47218600D02*
X62230000Y-46482000D01*
X62230000Y-46482000D02*
X53390800Y-46482000D01*
X50622200Y-57048400D02*
X50419000Y-56845200D01*
X55956200Y-57048400D02*
X50622200Y-57048400D01*
X56032400Y-57124600D02*
X55956200Y-57048400D01*
X59105800Y-56667400D02*
X69748400Y-56667400D01*
X57912000Y-55473600D02*
X59105800Y-56667400D01*
X76000000Y-65000000D02*
X75995400Y-65000000D01*
X75995400Y-65000000D02*
X75031600Y-65963800D01*
X71120000Y-69951600D02*
X71120000Y-71120000D01*
X72364600Y-68707000D02*
X71120000Y-69951600D01*
X74879200Y-68707000D02*
X72364600Y-68707000D01*
X75031600Y-68554600D02*
X74879200Y-68707000D01*
X75031600Y-65963800D02*
X75031600Y-68554600D01*
X76000000Y-65000000D02*
X76000000Y-65001800D01*
X76000000Y-65001800D02*
X77012800Y-66014600D01*
X73126600Y-69113400D02*
X71120000Y-71120000D01*
X76022200Y-69113400D02*
X73126600Y-69113400D01*
X77012800Y-68122800D02*
X76022200Y-69113400D01*
X77012800Y-66014600D02*
X77012800Y-68122800D01*
X76000000Y-65000000D02*
X76000000Y-65027200D01*
X76000000Y-65000000D02*
X76000000Y-65020800D01*
X63804800Y-53695600D02*
X63804800Y-46761400D01*
D19*
G36*
X90780800Y-73331000D02*
X38810000Y-73331000D01*
X38810000Y-70104000D01*
X64528960Y-70104000D01*
X64528960Y-72136000D01*
X64573238Y-72371317D01*
X64712310Y-72587441D01*
X64924510Y-72732431D01*
X65176400Y-72783440D01*
X66903600Y-72783440D01*
X67138917Y-72739162D01*
X67355041Y-72600090D01*
X67500031Y-72387890D01*
X67508400Y-72346561D01*
X67520330Y-72364415D01*
X68006511Y-72689271D01*
X68580000Y-72803345D01*
X69153489Y-72689271D01*
X69639670Y-72364415D01*
X69846461Y-72054931D01*
X70217964Y-72470732D01*
X70745209Y-72724709D01*
X70760974Y-72727358D01*
X70993000Y-72606217D01*
X70993000Y-71247000D01*
X70973000Y-71247000D01*
X70973000Y-70993000D01*
X70993000Y-70993000D01*
X70993000Y-69633783D01*
X71247000Y-69633783D01*
X71247000Y-70993000D01*
X71267000Y-70993000D01*
X71267000Y-71247000D01*
X71247000Y-71247000D01*
X71247000Y-72606217D01*
X71479026Y-72727358D01*
X71494791Y-72724709D01*
X72022036Y-72470732D01*
X72393539Y-72054931D01*
X72600330Y-72364415D01*
X73086511Y-72689271D01*
X73660000Y-72803345D01*
X74233489Y-72689271D01*
X74719670Y-72364415D01*
X74930000Y-72049634D01*
X75140330Y-72364415D01*
X75626511Y-72689271D01*
X76200000Y-72803345D01*
X76773489Y-72689271D01*
X77259670Y-72364415D01*
X77470000Y-72049634D01*
X77680330Y-72364415D01*
X78166511Y-72689271D01*
X78740000Y-72803345D01*
X79313489Y-72689271D01*
X79799670Y-72364415D01*
X80124526Y-71878234D01*
X80238600Y-71304745D01*
X80238600Y-70935255D01*
X80124526Y-70361766D01*
X79799670Y-69875585D01*
X79313489Y-69550729D01*
X78740000Y-69436655D01*
X78166511Y-69550729D01*
X77680330Y-69875585D01*
X77470000Y-70190366D01*
X77259670Y-69875585D01*
X76773489Y-69550729D01*
X76200000Y-69436655D01*
X75626511Y-69550729D01*
X75140330Y-69875585D01*
X74930000Y-70190366D01*
X74719670Y-69875585D01*
X74233489Y-69550729D01*
X73660000Y-69436655D01*
X73086511Y-69550729D01*
X72600330Y-69875585D01*
X72393539Y-70185069D01*
X72022036Y-69769268D01*
X71494791Y-69515291D01*
X71479026Y-69512642D01*
X71247000Y-69633783D01*
X70993000Y-69633783D01*
X70760974Y-69512642D01*
X70745209Y-69515291D01*
X70217964Y-69769268D01*
X69846461Y-70185069D01*
X69639670Y-69875585D01*
X69153489Y-69550729D01*
X68580000Y-69436655D01*
X68006511Y-69550729D01*
X67520330Y-69875585D01*
X67510757Y-69889913D01*
X67506762Y-69868683D01*
X67367690Y-69652559D01*
X67155490Y-69507569D01*
X66903600Y-69456560D01*
X65176400Y-69456560D01*
X64941083Y-69500838D01*
X64724959Y-69639910D01*
X64579969Y-69852110D01*
X64528960Y-70104000D01*
X38810000Y-70104000D01*
X38810000Y-67550402D01*
X38888789Y-67741086D01*
X39256976Y-68109916D01*
X39738282Y-68309772D01*
X40259432Y-68310226D01*
X40741086Y-68111211D01*
X41000129Y-67852620D01*
X41256976Y-68109916D01*
X41738282Y-68309772D01*
X42259432Y-68310226D01*
X42741086Y-68111211D01*
X43000129Y-67852620D01*
X43256976Y-68109916D01*
X43738282Y-68309772D01*
X44259432Y-68310226D01*
X44741086Y-68111211D01*
X45000129Y-67852620D01*
X45256976Y-68109916D01*
X45738282Y-68309772D01*
X46259432Y-68310226D01*
X46741086Y-68111211D01*
X47000129Y-67852620D01*
X47256976Y-68109916D01*
X47738282Y-68309772D01*
X48259432Y-68310226D01*
X48741086Y-68111211D01*
X49000129Y-67852620D01*
X49256976Y-68109916D01*
X49738282Y-68309772D01*
X50259432Y-68310226D01*
X50741086Y-68111211D01*
X51000129Y-67852620D01*
X51256976Y-68109916D01*
X51738282Y-68309772D01*
X52259432Y-68310226D01*
X52741086Y-68111211D01*
X53000129Y-67852620D01*
X53256976Y-68109916D01*
X53738282Y-68309772D01*
X54259432Y-68310226D01*
X54741086Y-68111211D01*
X55000129Y-67852620D01*
X55256976Y-68109916D01*
X55738282Y-68309772D01*
X56259432Y-68310226D01*
X56741086Y-68111211D01*
X57000129Y-67852620D01*
X57256976Y-68109916D01*
X57738282Y-68309772D01*
X58259432Y-68310226D01*
X58741086Y-68111211D01*
X59000129Y-67852620D01*
X59256976Y-68109916D01*
X59738282Y-68309772D01*
X60259432Y-68310226D01*
X60741086Y-68111211D01*
X61000129Y-67852620D01*
X61256976Y-68109916D01*
X61738282Y-68309772D01*
X62259432Y-68310226D01*
X62741086Y-68111211D01*
X63000129Y-67852620D01*
X63256976Y-68109916D01*
X63738282Y-68309772D01*
X64259432Y-68310226D01*
X64741086Y-68111211D01*
X65000129Y-67852620D01*
X65256976Y-68109916D01*
X65738282Y-68309772D01*
X66259432Y-68310226D01*
X66741086Y-68111211D01*
X67000129Y-67852620D01*
X67256976Y-68109916D01*
X67738282Y-68309772D01*
X68259432Y-68310226D01*
X68741086Y-68111211D01*
X69000129Y-67852620D01*
X69256976Y-68109916D01*
X69738282Y-68309772D01*
X70259432Y-68310226D01*
X70741086Y-68111211D01*
X71000129Y-67852620D01*
X71256976Y-68109916D01*
X71738282Y-68309772D01*
X72259432Y-68310226D01*
X72741086Y-68111211D01*
X73000129Y-67852620D01*
X73256976Y-68109916D01*
X73738282Y-68309772D01*
X74259432Y-68310226D01*
X74741086Y-68111211D01*
X75000129Y-67852620D01*
X75256976Y-68109916D01*
X75738282Y-68309772D01*
X76259432Y-68310226D01*
X76741086Y-68111211D01*
X77000129Y-67852620D01*
X77256976Y-68109916D01*
X77738282Y-68309772D01*
X78259432Y-68310226D01*
X78741086Y-68111211D01*
X79000129Y-67852620D01*
X79256976Y-68109916D01*
X79738282Y-68309772D01*
X80259432Y-68310226D01*
X80741086Y-68111211D01*
X81000129Y-67852620D01*
X81256976Y-68109916D01*
X81738282Y-68309772D01*
X82259432Y-68310226D01*
X82741086Y-68111211D01*
X83000129Y-67852620D01*
X83256976Y-68109916D01*
X83738282Y-68309772D01*
X84259432Y-68310226D01*
X84741086Y-68111211D01*
X85000129Y-67852620D01*
X85256976Y-68109916D01*
X85738282Y-68309772D01*
X86259432Y-68310226D01*
X86741086Y-68111211D01*
X86808077Y-68044337D01*
X86860910Y-68126441D01*
X87073110Y-68271431D01*
X87325000Y-68322440D01*
X88675000Y-68322440D01*
X88910317Y-68278162D01*
X89126441Y-68139090D01*
X89271431Y-67926890D01*
X89322440Y-67675000D01*
X89322440Y-66325000D01*
X89278162Y-66089683D01*
X89139090Y-65873559D01*
X89044142Y-65808684D01*
X89109916Y-65743024D01*
X89309772Y-65261718D01*
X89310226Y-64740568D01*
X89111211Y-64258914D01*
X89044337Y-64191923D01*
X89126441Y-64139090D01*
X89271431Y-63926890D01*
X89322440Y-63675000D01*
X89322440Y-62325000D01*
X89278162Y-62089683D01*
X89139090Y-61873559D01*
X89044142Y-61808684D01*
X89109916Y-61743024D01*
X89309772Y-61261718D01*
X89310226Y-60740568D01*
X89111211Y-60258914D01*
X88852620Y-59999871D01*
X89109916Y-59743024D01*
X89309772Y-59261718D01*
X89310226Y-58740568D01*
X89111211Y-58258914D01*
X88743024Y-57890084D01*
X88261718Y-57690228D01*
X87740568Y-57689774D01*
X87258914Y-57888789D01*
X86999871Y-58147380D01*
X86743024Y-57890084D01*
X86261718Y-57690228D01*
X85740568Y-57689774D01*
X85258914Y-57888789D01*
X84999871Y-58147380D01*
X84743024Y-57890084D01*
X84261718Y-57690228D01*
X83740568Y-57689774D01*
X83258914Y-57888789D01*
X82999871Y-58147380D01*
X82743024Y-57890084D01*
X82261718Y-57690228D01*
X81740568Y-57689774D01*
X81258914Y-57888789D01*
X80999871Y-58147380D01*
X80743024Y-57890084D01*
X80261718Y-57690228D01*
X79740568Y-57689774D01*
X79258914Y-57888789D01*
X78999871Y-58147380D01*
X78743024Y-57890084D01*
X78261718Y-57690228D01*
X77740568Y-57689774D01*
X77258914Y-57888789D01*
X76999871Y-58147380D01*
X76743024Y-57890084D01*
X76261718Y-57690228D01*
X75740568Y-57689774D01*
X75258914Y-57888789D01*
X74999871Y-58147380D01*
X74743024Y-57890084D01*
X74261718Y-57690228D01*
X73740568Y-57689774D01*
X73258914Y-57888789D01*
X72999871Y-58147380D01*
X72743024Y-57890084D01*
X72261718Y-57690228D01*
X71740568Y-57689774D01*
X71258914Y-57888789D01*
X70999871Y-58147380D01*
X70743024Y-57890084D01*
X70261718Y-57690228D01*
X69740568Y-57689774D01*
X69258914Y-57888789D01*
X68999871Y-58147380D01*
X68743024Y-57890084D01*
X68261718Y-57690228D01*
X67740568Y-57689774D01*
X67258914Y-57888789D01*
X66999871Y-58147380D01*
X66743024Y-57890084D01*
X66261718Y-57690228D01*
X65740568Y-57689774D01*
X65258914Y-57888789D01*
X64999871Y-58147380D01*
X64743024Y-57890084D01*
X64261718Y-57690228D01*
X63740568Y-57689774D01*
X63258914Y-57888789D01*
X62999871Y-58147380D01*
X62743024Y-57890084D01*
X62261718Y-57690228D01*
X61740568Y-57689774D01*
X61258914Y-57888789D01*
X60999871Y-58147380D01*
X60743024Y-57890084D01*
X60261718Y-57690228D01*
X59740568Y-57689774D01*
X59258914Y-57888789D01*
X58999871Y-58147380D01*
X58743024Y-57890084D01*
X58261718Y-57690228D01*
X57740568Y-57689774D01*
X57258914Y-57888789D01*
X56999871Y-58147380D01*
X56743024Y-57890084D01*
X56677149Y-57862730D01*
X56860940Y-57679259D01*
X57010130Y-57319970D01*
X57010469Y-56930937D01*
X56861907Y-56571388D01*
X56587059Y-56296060D01*
X56227770Y-56146870D01*
X55838737Y-56146531D01*
X55479188Y-56295093D01*
X55437007Y-56337200D01*
X51267188Y-56337200D01*
X51248507Y-56291988D01*
X50973659Y-56016660D01*
X50614370Y-55867470D01*
X50225337Y-55867131D01*
X49865788Y-56015693D01*
X49590460Y-56290541D01*
X49441270Y-56649830D01*
X49440931Y-57038863D01*
X49589493Y-57398412D01*
X49864341Y-57673740D01*
X49903297Y-57689916D01*
X49740568Y-57689774D01*
X49258914Y-57888789D01*
X48999871Y-58147380D01*
X48743024Y-57890084D01*
X48261718Y-57690228D01*
X47740568Y-57689774D01*
X47258914Y-57888789D01*
X46999871Y-58147380D01*
X46743024Y-57890084D01*
X46261718Y-57690228D01*
X45740568Y-57689774D01*
X45258914Y-57888789D01*
X44999871Y-58147380D01*
X44743024Y-57890084D01*
X44425894Y-57758400D01*
X45237400Y-57758400D01*
X45509105Y-57704354D01*
X45739446Y-57550446D01*
X45893354Y-57320105D01*
X45947400Y-57048400D01*
X45947400Y-46675663D01*
X52412731Y-46675663D01*
X52561293Y-47035212D01*
X52836141Y-47310540D01*
X53195430Y-47459730D01*
X53584463Y-47460069D01*
X53944012Y-47311507D01*
X54062526Y-47193200D01*
X61935412Y-47193200D01*
X62255400Y-47513189D01*
X62255400Y-54838600D01*
X62309537Y-55110765D01*
X62463706Y-55341494D01*
X63078412Y-55956200D01*
X59400388Y-55956200D01*
X58889925Y-55445737D01*
X58890069Y-55279937D01*
X58741507Y-54920388D01*
X58466659Y-54645060D01*
X58107370Y-54495870D01*
X57718337Y-54495531D01*
X57358788Y-54644093D01*
X57083460Y-54918941D01*
X56934270Y-55278230D01*
X56933931Y-55667263D01*
X57082493Y-56026812D01*
X57357341Y-56302140D01*
X57716630Y-56451330D01*
X57884088Y-56451476D01*
X58602906Y-57170294D01*
X58833635Y-57324463D01*
X58878790Y-57333445D01*
X59105800Y-57378600D01*
X69076606Y-57378600D01*
X69193741Y-57495940D01*
X69553030Y-57645130D01*
X69942063Y-57645469D01*
X70301612Y-57496907D01*
X70576940Y-57222059D01*
X70726130Y-56862770D01*
X70726278Y-56692800D01*
X84010389Y-56692800D01*
X84010331Y-56759463D01*
X84158893Y-57119012D01*
X84433741Y-57394340D01*
X84793030Y-57543530D01*
X85182063Y-57543869D01*
X85541612Y-57395307D01*
X85816940Y-57120459D01*
X85966130Y-56761170D01*
X85966469Y-56372137D01*
X85817907Y-56012588D01*
X85543059Y-55737260D01*
X85183770Y-55588070D01*
X85016312Y-55587924D01*
X84907094Y-55478706D01*
X84676365Y-55324537D01*
X84404200Y-55270400D01*
X64404188Y-55270400D01*
X64251788Y-55118000D01*
X85946655Y-55118000D01*
X86072330Y-55749810D01*
X86430222Y-56285433D01*
X86965845Y-56643325D01*
X87597655Y-56769000D01*
X87662345Y-56769000D01*
X88294155Y-56643325D01*
X88829778Y-56285433D01*
X89187670Y-55749810D01*
X89313345Y-55118000D01*
X89187670Y-54486190D01*
X88960501Y-54146208D01*
X89097441Y-54058090D01*
X89242431Y-53845890D01*
X89293440Y-53594000D01*
X89293440Y-51562000D01*
X89249162Y-51326683D01*
X89110090Y-51110559D01*
X88897890Y-50965569D01*
X88646000Y-50914560D01*
X86614000Y-50914560D01*
X86378683Y-50958838D01*
X86162559Y-51097910D01*
X86017569Y-51310110D01*
X85966560Y-51562000D01*
X85966560Y-53594000D01*
X86010838Y-53829317D01*
X86149910Y-54045441D01*
X86298837Y-54147198D01*
X86072330Y-54486190D01*
X85946655Y-55118000D01*
X64251788Y-55118000D01*
X63807290Y-54673502D01*
X63998463Y-54673669D01*
X64358012Y-54525107D01*
X64633340Y-54250259D01*
X64782530Y-53890970D01*
X64782869Y-53501937D01*
X64634307Y-53142388D01*
X64516000Y-53023874D01*
X64516000Y-52324000D01*
X67068960Y-52324000D01*
X67068960Y-54356000D01*
X67113238Y-54591317D01*
X67252310Y-54807441D01*
X67464510Y-54952431D01*
X67716400Y-55003440D01*
X69443600Y-55003440D01*
X69678917Y-54959162D01*
X69895041Y-54820090D01*
X70040031Y-54607890D01*
X70048400Y-54566561D01*
X70060330Y-54584415D01*
X70546511Y-54909271D01*
X71120000Y-55023345D01*
X71693489Y-54909271D01*
X72179670Y-54584415D01*
X72390000Y-54269634D01*
X72600330Y-54584415D01*
X73086511Y-54909271D01*
X73660000Y-55023345D01*
X74233489Y-54909271D01*
X74719670Y-54584415D01*
X74930000Y-54269634D01*
X75140330Y-54584415D01*
X75626511Y-54909271D01*
X76200000Y-55023345D01*
X76773489Y-54909271D01*
X77259670Y-54584415D01*
X77584526Y-54098234D01*
X77698600Y-53524745D01*
X77698600Y-53155255D01*
X77584526Y-52581766D01*
X77259670Y-52095585D01*
X76773489Y-51770729D01*
X76200000Y-51656655D01*
X75626511Y-51770729D01*
X75140330Y-52095585D01*
X74930000Y-52410366D01*
X74719670Y-52095585D01*
X74233489Y-51770729D01*
X73660000Y-51656655D01*
X73086511Y-51770729D01*
X72600330Y-52095585D01*
X72390000Y-52410366D01*
X72179670Y-52095585D01*
X71693489Y-51770729D01*
X71120000Y-51656655D01*
X70546511Y-51770729D01*
X70060330Y-52095585D01*
X70050757Y-52109913D01*
X70046762Y-52088683D01*
X69907690Y-51872559D01*
X69695490Y-51727569D01*
X69443600Y-51676560D01*
X67716400Y-51676560D01*
X67481083Y-51720838D01*
X67264959Y-51859910D01*
X67119969Y-52072110D01*
X67068960Y-52324000D01*
X64516000Y-52324000D01*
X64516000Y-47433194D01*
X64633340Y-47316059D01*
X64782530Y-46956770D01*
X64782869Y-46567737D01*
X64634307Y-46208188D01*
X64359459Y-45932860D01*
X64000170Y-45783670D01*
X63611137Y-45783331D01*
X63251588Y-45931893D01*
X62976260Y-46206741D01*
X62971645Y-46217856D01*
X62732894Y-45979106D01*
X62502165Y-45824937D01*
X62230000Y-45770800D01*
X54062594Y-45770800D01*
X53945459Y-45653460D01*
X53586170Y-45504270D01*
X53197137Y-45503931D01*
X52837588Y-45652493D01*
X52562260Y-45927341D01*
X52413070Y-46286630D01*
X52412731Y-46675663D01*
X45947400Y-46675663D01*
X45947400Y-43434000D01*
X66052960Y-43434000D01*
X66052960Y-45466000D01*
X66097238Y-45701317D01*
X66236310Y-45917441D01*
X66448510Y-46062431D01*
X66700400Y-46113440D01*
X68427600Y-46113440D01*
X68662917Y-46069162D01*
X68879041Y-45930090D01*
X69024031Y-45717890D01*
X69032400Y-45676561D01*
X69044330Y-45694415D01*
X69530511Y-46019271D01*
X70104000Y-46133345D01*
X70677489Y-46019271D01*
X71163670Y-45694415D01*
X71374000Y-45379634D01*
X71584330Y-45694415D01*
X72070511Y-46019271D01*
X72644000Y-46133345D01*
X73217489Y-46019271D01*
X73703670Y-45694415D01*
X73914000Y-45379634D01*
X74124330Y-45694415D01*
X74610511Y-46019271D01*
X75184000Y-46133345D01*
X75757489Y-46019271D01*
X76243670Y-45694415D01*
X76454000Y-45379634D01*
X76664330Y-45694415D01*
X77150511Y-46019271D01*
X77724000Y-46133345D01*
X78297489Y-46019271D01*
X78783670Y-45694415D01*
X78994000Y-45379634D01*
X79204330Y-45694415D01*
X79690511Y-46019271D01*
X80264000Y-46133345D01*
X80837489Y-46019271D01*
X81323670Y-45694415D01*
X81534000Y-45379634D01*
X81744330Y-45694415D01*
X82230511Y-46019271D01*
X82804000Y-46133345D01*
X83377489Y-46019271D01*
X83863670Y-45694415D01*
X84188526Y-45208234D01*
X84302600Y-44634745D01*
X84302600Y-44265255D01*
X84188526Y-43691766D01*
X83863670Y-43205585D01*
X83377489Y-42880729D01*
X82804000Y-42766655D01*
X82230511Y-42880729D01*
X81744330Y-43205585D01*
X81534000Y-43520366D01*
X81323670Y-43205585D01*
X80837489Y-42880729D01*
X80264000Y-42766655D01*
X79690511Y-42880729D01*
X79204330Y-43205585D01*
X78994000Y-43520366D01*
X78783670Y-43205585D01*
X78297489Y-42880729D01*
X77724000Y-42766655D01*
X77150511Y-42880729D01*
X76664330Y-43205585D01*
X76454000Y-43520366D01*
X76243670Y-43205585D01*
X75757489Y-42880729D01*
X75184000Y-42766655D01*
X74610511Y-42880729D01*
X74124330Y-43205585D01*
X73914000Y-43520366D01*
X73703670Y-43205585D01*
X73217489Y-42880729D01*
X72644000Y-42766655D01*
X72070511Y-42880729D01*
X71584330Y-43205585D01*
X71374000Y-43520366D01*
X71163670Y-43205585D01*
X70677489Y-42880729D01*
X70104000Y-42766655D01*
X69530511Y-42880729D01*
X69044330Y-43205585D01*
X69034757Y-43219913D01*
X69030762Y-43198683D01*
X68891690Y-42982559D01*
X68679490Y-42837569D01*
X68427600Y-42786560D01*
X66700400Y-42786560D01*
X66465083Y-42830838D01*
X66248959Y-42969910D01*
X66103969Y-43182110D01*
X66052960Y-43434000D01*
X45947400Y-43434000D01*
X45947400Y-42721600D01*
X90780800Y-42721600D01*
X90780800Y-73331000D01*
X90780800Y-73331000D01*
G37*
X90780800Y-73331000D02*
X38810000Y-73331000D01*
X38810000Y-70104000D01*
X64528960Y-70104000D01*
X64528960Y-72136000D01*
X64573238Y-72371317D01*
X64712310Y-72587441D01*
X64924510Y-72732431D01*
X65176400Y-72783440D01*
X66903600Y-72783440D01*
X67138917Y-72739162D01*
X67355041Y-72600090D01*
X67500031Y-72387890D01*
X67508400Y-72346561D01*
X67520330Y-72364415D01*
X68006511Y-72689271D01*
X68580000Y-72803345D01*
X69153489Y-72689271D01*
X69639670Y-72364415D01*
X69846461Y-72054931D01*
X70217964Y-72470732D01*
X70745209Y-72724709D01*
X70760974Y-72727358D01*
X70993000Y-72606217D01*
X70993000Y-71247000D01*
X70973000Y-71247000D01*
X70973000Y-70993000D01*
X70993000Y-70993000D01*
X70993000Y-69633783D01*
X71247000Y-69633783D01*
X71247000Y-70993000D01*
X71267000Y-70993000D01*
X71267000Y-71247000D01*
X71247000Y-71247000D01*
X71247000Y-72606217D01*
X71479026Y-72727358D01*
X71494791Y-72724709D01*
X72022036Y-72470732D01*
X72393539Y-72054931D01*
X72600330Y-72364415D01*
X73086511Y-72689271D01*
X73660000Y-72803345D01*
X74233489Y-72689271D01*
X74719670Y-72364415D01*
X74930000Y-72049634D01*
X75140330Y-72364415D01*
X75626511Y-72689271D01*
X76200000Y-72803345D01*
X76773489Y-72689271D01*
X77259670Y-72364415D01*
X77470000Y-72049634D01*
X77680330Y-72364415D01*
X78166511Y-72689271D01*
X78740000Y-72803345D01*
X79313489Y-72689271D01*
X79799670Y-72364415D01*
X80124526Y-71878234D01*
X80238600Y-71304745D01*
X80238600Y-70935255D01*
X80124526Y-70361766D01*
X79799670Y-69875585D01*
X79313489Y-69550729D01*
X78740000Y-69436655D01*
X78166511Y-69550729D01*
X77680330Y-69875585D01*
X77470000Y-70190366D01*
X77259670Y-69875585D01*
X76773489Y-69550729D01*
X76200000Y-69436655D01*
X75626511Y-69550729D01*
X75140330Y-69875585D01*
X74930000Y-70190366D01*
X74719670Y-69875585D01*
X74233489Y-69550729D01*
X73660000Y-69436655D01*
X73086511Y-69550729D01*
X72600330Y-69875585D01*
X72393539Y-70185069D01*
X72022036Y-69769268D01*
X71494791Y-69515291D01*
X71479026Y-69512642D01*
X71247000Y-69633783D01*
X70993000Y-69633783D01*
X70760974Y-69512642D01*
X70745209Y-69515291D01*
X70217964Y-69769268D01*
X69846461Y-70185069D01*
X69639670Y-69875585D01*
X69153489Y-69550729D01*
X68580000Y-69436655D01*
X68006511Y-69550729D01*
X67520330Y-69875585D01*
X67510757Y-69889913D01*
X67506762Y-69868683D01*
X67367690Y-69652559D01*
X67155490Y-69507569D01*
X66903600Y-69456560D01*
X65176400Y-69456560D01*
X64941083Y-69500838D01*
X64724959Y-69639910D01*
X64579969Y-69852110D01*
X64528960Y-70104000D01*
X38810000Y-70104000D01*
X38810000Y-67550402D01*
X38888789Y-67741086D01*
X39256976Y-68109916D01*
X39738282Y-68309772D01*
X40259432Y-68310226D01*
X40741086Y-68111211D01*
X41000129Y-67852620D01*
X41256976Y-68109916D01*
X41738282Y-68309772D01*
X42259432Y-68310226D01*
X42741086Y-68111211D01*
X43000129Y-67852620D01*
X43256976Y-68109916D01*
X43738282Y-68309772D01*
X44259432Y-68310226D01*
X44741086Y-68111211D01*
X45000129Y-67852620D01*
X45256976Y-68109916D01*
X45738282Y-68309772D01*
X46259432Y-68310226D01*
X46741086Y-68111211D01*
X47000129Y-67852620D01*
X47256976Y-68109916D01*
X47738282Y-68309772D01*
X48259432Y-68310226D01*
X48741086Y-68111211D01*
X49000129Y-67852620D01*
X49256976Y-68109916D01*
X49738282Y-68309772D01*
X50259432Y-68310226D01*
X50741086Y-68111211D01*
X51000129Y-67852620D01*
X51256976Y-68109916D01*
X51738282Y-68309772D01*
X52259432Y-68310226D01*
X52741086Y-68111211D01*
X53000129Y-67852620D01*
X53256976Y-68109916D01*
X53738282Y-68309772D01*
X54259432Y-68310226D01*
X54741086Y-68111211D01*
X55000129Y-67852620D01*
X55256976Y-68109916D01*
X55738282Y-68309772D01*
X56259432Y-68310226D01*
X56741086Y-68111211D01*
X57000129Y-67852620D01*
X57256976Y-68109916D01*
X57738282Y-68309772D01*
X58259432Y-68310226D01*
X58741086Y-68111211D01*
X59000129Y-67852620D01*
X59256976Y-68109916D01*
X59738282Y-68309772D01*
X60259432Y-68310226D01*
X60741086Y-68111211D01*
X61000129Y-67852620D01*
X61256976Y-68109916D01*
X61738282Y-68309772D01*
X62259432Y-68310226D01*
X62741086Y-68111211D01*
X63000129Y-67852620D01*
X63256976Y-68109916D01*
X63738282Y-68309772D01*
X64259432Y-68310226D01*
X64741086Y-68111211D01*
X65000129Y-67852620D01*
X65256976Y-68109916D01*
X65738282Y-68309772D01*
X66259432Y-68310226D01*
X66741086Y-68111211D01*
X67000129Y-67852620D01*
X67256976Y-68109916D01*
X67738282Y-68309772D01*
X68259432Y-68310226D01*
X68741086Y-68111211D01*
X69000129Y-67852620D01*
X69256976Y-68109916D01*
X69738282Y-68309772D01*
X70259432Y-68310226D01*
X70741086Y-68111211D01*
X71000129Y-67852620D01*
X71256976Y-68109916D01*
X71738282Y-68309772D01*
X72259432Y-68310226D01*
X72741086Y-68111211D01*
X73000129Y-67852620D01*
X73256976Y-68109916D01*
X73738282Y-68309772D01*
X74259432Y-68310226D01*
X74741086Y-68111211D01*
X75000129Y-67852620D01*
X75256976Y-68109916D01*
X75738282Y-68309772D01*
X76259432Y-68310226D01*
X76741086Y-68111211D01*
X77000129Y-67852620D01*
X77256976Y-68109916D01*
X77738282Y-68309772D01*
X78259432Y-68310226D01*
X78741086Y-68111211D01*
X79000129Y-67852620D01*
X79256976Y-68109916D01*
X79738282Y-68309772D01*
X80259432Y-68310226D01*
X80741086Y-68111211D01*
X81000129Y-67852620D01*
X81256976Y-68109916D01*
X81738282Y-68309772D01*
X82259432Y-68310226D01*
X82741086Y-68111211D01*
X83000129Y-67852620D01*
X83256976Y-68109916D01*
X83738282Y-68309772D01*
X84259432Y-68310226D01*
X84741086Y-68111211D01*
X85000129Y-67852620D01*
X85256976Y-68109916D01*
X85738282Y-68309772D01*
X86259432Y-68310226D01*
X86741086Y-68111211D01*
X86808077Y-68044337D01*
X86860910Y-68126441D01*
X87073110Y-68271431D01*
X87325000Y-68322440D01*
X88675000Y-68322440D01*
X88910317Y-68278162D01*
X89126441Y-68139090D01*
X89271431Y-67926890D01*
X89322440Y-67675000D01*
X89322440Y-66325000D01*
X89278162Y-66089683D01*
X89139090Y-65873559D01*
X89044142Y-65808684D01*
X89109916Y-65743024D01*
X89309772Y-65261718D01*
X89310226Y-64740568D01*
X89111211Y-64258914D01*
X89044337Y-64191923D01*
X89126441Y-64139090D01*
X89271431Y-63926890D01*
X89322440Y-63675000D01*
X89322440Y-62325000D01*
X89278162Y-62089683D01*
X89139090Y-61873559D01*
X89044142Y-61808684D01*
X89109916Y-61743024D01*
X89309772Y-61261718D01*
X89310226Y-60740568D01*
X89111211Y-60258914D01*
X88852620Y-59999871D01*
X89109916Y-59743024D01*
X89309772Y-59261718D01*
X89310226Y-58740568D01*
X89111211Y-58258914D01*
X88743024Y-57890084D01*
X88261718Y-57690228D01*
X87740568Y-57689774D01*
X87258914Y-57888789D01*
X86999871Y-58147380D01*
X86743024Y-57890084D01*
X86261718Y-57690228D01*
X85740568Y-57689774D01*
X85258914Y-57888789D01*
X84999871Y-58147380D01*
X84743024Y-57890084D01*
X84261718Y-57690228D01*
X83740568Y-57689774D01*
X83258914Y-57888789D01*
X82999871Y-58147380D01*
X82743024Y-57890084D01*
X82261718Y-57690228D01*
X81740568Y-57689774D01*
X81258914Y-57888789D01*
X80999871Y-58147380D01*
X80743024Y-57890084D01*
X80261718Y-57690228D01*
X79740568Y-57689774D01*
X79258914Y-57888789D01*
X78999871Y-58147380D01*
X78743024Y-57890084D01*
X78261718Y-57690228D01*
X77740568Y-57689774D01*
X77258914Y-57888789D01*
X76999871Y-58147380D01*
X76743024Y-57890084D01*
X76261718Y-57690228D01*
X75740568Y-57689774D01*
X75258914Y-57888789D01*
X74999871Y-58147380D01*
X74743024Y-57890084D01*
X74261718Y-57690228D01*
X73740568Y-57689774D01*
X73258914Y-57888789D01*
X72999871Y-58147380D01*
X72743024Y-57890084D01*
X72261718Y-57690228D01*
X71740568Y-57689774D01*
X71258914Y-57888789D01*
X70999871Y-58147380D01*
X70743024Y-57890084D01*
X70261718Y-57690228D01*
X69740568Y-57689774D01*
X69258914Y-57888789D01*
X68999871Y-58147380D01*
X68743024Y-57890084D01*
X68261718Y-57690228D01*
X67740568Y-57689774D01*
X67258914Y-57888789D01*
X66999871Y-58147380D01*
X66743024Y-57890084D01*
X66261718Y-57690228D01*
X65740568Y-57689774D01*
X65258914Y-57888789D01*
X64999871Y-58147380D01*
X64743024Y-57890084D01*
X64261718Y-57690228D01*
X63740568Y-57689774D01*
X63258914Y-57888789D01*
X62999871Y-58147380D01*
X62743024Y-57890084D01*
X62261718Y-57690228D01*
X61740568Y-57689774D01*
X61258914Y-57888789D01*
X60999871Y-58147380D01*
X60743024Y-57890084D01*
X60261718Y-57690228D01*
X59740568Y-57689774D01*
X59258914Y-57888789D01*
X58999871Y-58147380D01*
X58743024Y-57890084D01*
X58261718Y-57690228D01*
X57740568Y-57689774D01*
X57258914Y-57888789D01*
X56999871Y-58147380D01*
X56743024Y-57890084D01*
X56677149Y-57862730D01*
X56860940Y-57679259D01*
X57010130Y-57319970D01*
X57010469Y-56930937D01*
X56861907Y-56571388D01*
X56587059Y-56296060D01*
X56227770Y-56146870D01*
X55838737Y-56146531D01*
X55479188Y-56295093D01*
X55437007Y-56337200D01*
X51267188Y-56337200D01*
X51248507Y-56291988D01*
X50973659Y-56016660D01*
X50614370Y-55867470D01*
X50225337Y-55867131D01*
X49865788Y-56015693D01*
X49590460Y-56290541D01*
X49441270Y-56649830D01*
X49440931Y-57038863D01*
X49589493Y-57398412D01*
X49864341Y-57673740D01*
X49903297Y-57689916D01*
X49740568Y-57689774D01*
X49258914Y-57888789D01*
X48999871Y-58147380D01*
X48743024Y-57890084D01*
X48261718Y-57690228D01*
X47740568Y-57689774D01*
X47258914Y-57888789D01*
X46999871Y-58147380D01*
X46743024Y-57890084D01*
X46261718Y-57690228D01*
X45740568Y-57689774D01*
X45258914Y-57888789D01*
X44999871Y-58147380D01*
X44743024Y-57890084D01*
X44425894Y-57758400D01*
X45237400Y-57758400D01*
X45509105Y-57704354D01*
X45739446Y-57550446D01*
X45893354Y-57320105D01*
X45947400Y-57048400D01*
X45947400Y-46675663D01*
X52412731Y-46675663D01*
X52561293Y-47035212D01*
X52836141Y-47310540D01*
X53195430Y-47459730D01*
X53584463Y-47460069D01*
X53944012Y-47311507D01*
X54062526Y-47193200D01*
X61935412Y-47193200D01*
X62255400Y-47513189D01*
X62255400Y-54838600D01*
X62309537Y-55110765D01*
X62463706Y-55341494D01*
X63078412Y-55956200D01*
X59400388Y-55956200D01*
X58889925Y-55445737D01*
X58890069Y-55279937D01*
X58741507Y-54920388D01*
X58466659Y-54645060D01*
X58107370Y-54495870D01*
X57718337Y-54495531D01*
X57358788Y-54644093D01*
X57083460Y-54918941D01*
X56934270Y-55278230D01*
X56933931Y-55667263D01*
X57082493Y-56026812D01*
X57357341Y-56302140D01*
X57716630Y-56451330D01*
X57884088Y-56451476D01*
X58602906Y-57170294D01*
X58833635Y-57324463D01*
X58878790Y-57333445D01*
X59105800Y-57378600D01*
X69076606Y-57378600D01*
X69193741Y-57495940D01*
X69553030Y-57645130D01*
X69942063Y-57645469D01*
X70301612Y-57496907D01*
X70576940Y-57222059D01*
X70726130Y-56862770D01*
X70726278Y-56692800D01*
X84010389Y-56692800D01*
X84010331Y-56759463D01*
X84158893Y-57119012D01*
X84433741Y-57394340D01*
X84793030Y-57543530D01*
X85182063Y-57543869D01*
X85541612Y-57395307D01*
X85816940Y-57120459D01*
X85966130Y-56761170D01*
X85966469Y-56372137D01*
X85817907Y-56012588D01*
X85543059Y-55737260D01*
X85183770Y-55588070D01*
X85016312Y-55587924D01*
X84907094Y-55478706D01*
X84676365Y-55324537D01*
X84404200Y-55270400D01*
X64404188Y-55270400D01*
X64251788Y-55118000D01*
X85946655Y-55118000D01*
X86072330Y-55749810D01*
X86430222Y-56285433D01*
X86965845Y-56643325D01*
X87597655Y-56769000D01*
X87662345Y-56769000D01*
X88294155Y-56643325D01*
X88829778Y-56285433D01*
X89187670Y-55749810D01*
X89313345Y-55118000D01*
X89187670Y-54486190D01*
X88960501Y-54146208D01*
X89097441Y-54058090D01*
X89242431Y-53845890D01*
X89293440Y-53594000D01*
X89293440Y-51562000D01*
X89249162Y-51326683D01*
X89110090Y-51110559D01*
X88897890Y-50965569D01*
X88646000Y-50914560D01*
X86614000Y-50914560D01*
X86378683Y-50958838D01*
X86162559Y-51097910D01*
X86017569Y-51310110D01*
X85966560Y-51562000D01*
X85966560Y-53594000D01*
X86010838Y-53829317D01*
X86149910Y-54045441D01*
X86298837Y-54147198D01*
X86072330Y-54486190D01*
X85946655Y-55118000D01*
X64251788Y-55118000D01*
X63807290Y-54673502D01*
X63998463Y-54673669D01*
X64358012Y-54525107D01*
X64633340Y-54250259D01*
X64782530Y-53890970D01*
X64782869Y-53501937D01*
X64634307Y-53142388D01*
X64516000Y-53023874D01*
X64516000Y-52324000D01*
X67068960Y-52324000D01*
X67068960Y-54356000D01*
X67113238Y-54591317D01*
X67252310Y-54807441D01*
X67464510Y-54952431D01*
X67716400Y-55003440D01*
X69443600Y-55003440D01*
X69678917Y-54959162D01*
X69895041Y-54820090D01*
X70040031Y-54607890D01*
X70048400Y-54566561D01*
X70060330Y-54584415D01*
X70546511Y-54909271D01*
X71120000Y-55023345D01*
X71693489Y-54909271D01*
X72179670Y-54584415D01*
X72390000Y-54269634D01*
X72600330Y-54584415D01*
X73086511Y-54909271D01*
X73660000Y-55023345D01*
X74233489Y-54909271D01*
X74719670Y-54584415D01*
X74930000Y-54269634D01*
X75140330Y-54584415D01*
X75626511Y-54909271D01*
X76200000Y-55023345D01*
X76773489Y-54909271D01*
X77259670Y-54584415D01*
X77584526Y-54098234D01*
X77698600Y-53524745D01*
X77698600Y-53155255D01*
X77584526Y-52581766D01*
X77259670Y-52095585D01*
X76773489Y-51770729D01*
X76200000Y-51656655D01*
X75626511Y-51770729D01*
X75140330Y-52095585D01*
X74930000Y-52410366D01*
X74719670Y-52095585D01*
X74233489Y-51770729D01*
X73660000Y-51656655D01*
X73086511Y-51770729D01*
X72600330Y-52095585D01*
X72390000Y-52410366D01*
X72179670Y-52095585D01*
X71693489Y-51770729D01*
X71120000Y-51656655D01*
X70546511Y-51770729D01*
X70060330Y-52095585D01*
X70050757Y-52109913D01*
X70046762Y-52088683D01*
X69907690Y-51872559D01*
X69695490Y-51727569D01*
X69443600Y-51676560D01*
X67716400Y-51676560D01*
X67481083Y-51720838D01*
X67264959Y-51859910D01*
X67119969Y-52072110D01*
X67068960Y-52324000D01*
X64516000Y-52324000D01*
X64516000Y-47433194D01*
X64633340Y-47316059D01*
X64782530Y-46956770D01*
X64782869Y-46567737D01*
X64634307Y-46208188D01*
X64359459Y-45932860D01*
X64000170Y-45783670D01*
X63611137Y-45783331D01*
X63251588Y-45931893D01*
X62976260Y-46206741D01*
X62971645Y-46217856D01*
X62732894Y-45979106D01*
X62502165Y-45824937D01*
X62230000Y-45770800D01*
X54062594Y-45770800D01*
X53945459Y-45653460D01*
X53586170Y-45504270D01*
X53197137Y-45503931D01*
X52837588Y-45652493D01*
X52562260Y-45927341D01*
X52413070Y-46286630D01*
X52412731Y-46675663D01*
X45947400Y-46675663D01*
X45947400Y-43434000D01*
X66052960Y-43434000D01*
X66052960Y-45466000D01*
X66097238Y-45701317D01*
X66236310Y-45917441D01*
X66448510Y-46062431D01*
X66700400Y-46113440D01*
X68427600Y-46113440D01*
X68662917Y-46069162D01*
X68879041Y-45930090D01*
X69024031Y-45717890D01*
X69032400Y-45676561D01*
X69044330Y-45694415D01*
X69530511Y-46019271D01*
X70104000Y-46133345D01*
X70677489Y-46019271D01*
X71163670Y-45694415D01*
X71374000Y-45379634D01*
X71584330Y-45694415D01*
X72070511Y-46019271D01*
X72644000Y-46133345D01*
X73217489Y-46019271D01*
X73703670Y-45694415D01*
X73914000Y-45379634D01*
X74124330Y-45694415D01*
X74610511Y-46019271D01*
X75184000Y-46133345D01*
X75757489Y-46019271D01*
X76243670Y-45694415D01*
X76454000Y-45379634D01*
X76664330Y-45694415D01*
X77150511Y-46019271D01*
X77724000Y-46133345D01*
X78297489Y-46019271D01*
X78783670Y-45694415D01*
X78994000Y-45379634D01*
X79204330Y-45694415D01*
X79690511Y-46019271D01*
X80264000Y-46133345D01*
X80837489Y-46019271D01*
X81323670Y-45694415D01*
X81534000Y-45379634D01*
X81744330Y-45694415D01*
X82230511Y-46019271D01*
X82804000Y-46133345D01*
X83377489Y-46019271D01*
X83863670Y-45694415D01*
X84188526Y-45208234D01*
X84302600Y-44634745D01*
X84302600Y-44265255D01*
X84188526Y-43691766D01*
X83863670Y-43205585D01*
X83377489Y-42880729D01*
X82804000Y-42766655D01*
X82230511Y-42880729D01*
X81744330Y-43205585D01*
X81534000Y-43520366D01*
X81323670Y-43205585D01*
X80837489Y-42880729D01*
X80264000Y-42766655D01*
X79690511Y-42880729D01*
X79204330Y-43205585D01*
X78994000Y-43520366D01*
X78783670Y-43205585D01*
X78297489Y-42880729D01*
X77724000Y-42766655D01*
X77150511Y-42880729D01*
X76664330Y-43205585D01*
X76454000Y-43520366D01*
X76243670Y-43205585D01*
X75757489Y-42880729D01*
X75184000Y-42766655D01*
X74610511Y-42880729D01*
X74124330Y-43205585D01*
X73914000Y-43520366D01*
X73703670Y-43205585D01*
X73217489Y-42880729D01*
X72644000Y-42766655D01*
X72070511Y-42880729D01*
X71584330Y-43205585D01*
X71374000Y-43520366D01*
X71163670Y-43205585D01*
X70677489Y-42880729D01*
X70104000Y-42766655D01*
X69530511Y-42880729D01*
X69044330Y-43205585D01*
X69034757Y-43219913D01*
X69030762Y-43198683D01*
X68891690Y-42982559D01*
X68679490Y-42837569D01*
X68427600Y-42786560D01*
X66700400Y-42786560D01*
X66465083Y-42830838D01*
X66248959Y-42969910D01*
X66103969Y-43182110D01*
X66052960Y-43434000D01*
X45947400Y-43434000D01*
X45947400Y-42721600D01*
X90780800Y-42721600D01*
X90780800Y-73331000D01*
G36*
X77147380Y-64000129D02*
X76890084Y-64256976D01*
X76866974Y-64312631D01*
X76179605Y-65000000D01*
X76866326Y-65686721D01*
X76888789Y-65741086D01*
X77147380Y-66000129D01*
X76999871Y-66147380D01*
X76743024Y-65890084D01*
X76687369Y-65866974D01*
X76000000Y-65179605D01*
X75313279Y-65866326D01*
X75258914Y-65888789D01*
X74999871Y-66147380D01*
X74852620Y-65999871D01*
X75109916Y-65743024D01*
X75133026Y-65687369D01*
X75820395Y-65000000D01*
X75133674Y-64313279D01*
X75111211Y-64258914D01*
X74852620Y-63999871D01*
X75000129Y-63852620D01*
X75256976Y-64109916D01*
X75312631Y-64133026D01*
X76000000Y-64820395D01*
X76686721Y-64133674D01*
X76741086Y-64111211D01*
X77000129Y-63852620D01*
X77147380Y-64000129D01*
X77147380Y-64000129D01*
G37*
X77147380Y-64000129D02*
X76890084Y-64256976D01*
X76866974Y-64312631D01*
X76179605Y-65000000D01*
X76866326Y-65686721D01*
X76888789Y-65741086D01*
X77147380Y-66000129D01*
X76999871Y-66147380D01*
X76743024Y-65890084D01*
X76687369Y-65866974D01*
X76000000Y-65179605D01*
X75313279Y-65866326D01*
X75258914Y-65888789D01*
X74999871Y-66147380D01*
X74852620Y-65999871D01*
X75109916Y-65743024D01*
X75133026Y-65687369D01*
X75820395Y-65000000D01*
X75133674Y-64313279D01*
X75111211Y-64258914D01*
X74852620Y-63999871D01*
X75000129Y-63852620D01*
X75256976Y-64109916D01*
X75312631Y-64133026D01*
X76000000Y-64820395D01*
X76686721Y-64133674D01*
X76741086Y-64111211D01*
X77000129Y-63852620D01*
X77147380Y-64000129D01*
M02*
