G04 #@! TF.FileFunction,Copper,L1,Top,Signal*
%FSLAX46Y46*%
G04 Gerber Fmt 4.6, Leading zero omitted, Abs format (unit mm)*
G04 Created by KiCad (PCBNEW 4.0.4-stable) date 10/29/16 17:18:15*
%MOMM*%
%LPD*%
G01*
G04 APERTURE LIST*
%ADD10C,0.100000*%
%ADD11R,1.600000X2.000000*%
%ADD12R,2.000000X1.600000*%
%ADD13R,1.350000X1.350000*%
%ADD14C,1.350000*%
%ADD15R,2.032000X2.032000*%
%ADD16O,2.032000X2.032000*%
%ADD17R,1.727200X2.032000*%
%ADD18O,1.727200X2.032000*%
%ADD19R,2.000000X1.700000*%
%ADD20R,1.700000X2.000000*%
%ADD21R,1.000000X0.400000*%
%ADD22C,0.685800*%
%ADD23C,0.152400*%
G04 APERTURE END LIST*
D10*
D11*
X48844200Y-43897800D03*
X48844200Y-47897800D03*
X48750000Y-51250000D03*
X48750000Y-55250000D03*
D12*
X56750000Y-43750000D03*
X52750000Y-43750000D03*
D13*
X88000000Y-67000000D03*
D14*
X86000000Y-67000000D03*
X84000000Y-67000000D03*
X82000000Y-67000000D03*
X80000000Y-67000000D03*
X78000000Y-67000000D03*
X76000000Y-67000000D03*
X74000000Y-67000000D03*
X72000000Y-67000000D03*
X70000000Y-67000000D03*
X68000000Y-67000000D03*
X66000000Y-67000000D03*
X64000000Y-67000000D03*
X62000000Y-67000000D03*
X60000000Y-67000000D03*
X58000000Y-67000000D03*
X56000000Y-67000000D03*
X54000000Y-67000000D03*
X52000000Y-67000000D03*
X50000000Y-67000000D03*
X48000000Y-67000000D03*
X46000000Y-67000000D03*
X44000000Y-67000000D03*
X42000000Y-67000000D03*
X40000000Y-67000000D03*
X88000000Y-65000000D03*
X86000000Y-65000000D03*
X84000000Y-65000000D03*
X82000000Y-65000000D03*
X80000000Y-65000000D03*
X78000000Y-65000000D03*
X76000000Y-65000000D03*
X74000000Y-65000000D03*
X72000000Y-65000000D03*
X70000000Y-65000000D03*
X68000000Y-65000000D03*
X66000000Y-65000000D03*
X64000000Y-65000000D03*
X62000000Y-65000000D03*
X60000000Y-65000000D03*
X58000000Y-65000000D03*
X56000000Y-65000000D03*
X54000000Y-65000000D03*
X52000000Y-65000000D03*
X50000000Y-65000000D03*
X48000000Y-65000000D03*
X46000000Y-65000000D03*
X44000000Y-65000000D03*
X42000000Y-65000000D03*
X40000000Y-65000000D03*
X40000000Y-59000000D03*
X42000000Y-59000000D03*
X44000000Y-59000000D03*
X46000000Y-59000000D03*
X48000000Y-59000000D03*
X50000000Y-59000000D03*
X52000000Y-59000000D03*
X54000000Y-59000000D03*
X56000000Y-59000000D03*
X58000000Y-59000000D03*
X60000000Y-59000000D03*
X62000000Y-59000000D03*
X64000000Y-59000000D03*
X66000000Y-59000000D03*
X68000000Y-59000000D03*
X70000000Y-59000000D03*
X72000000Y-59000000D03*
X74000000Y-59000000D03*
X76000000Y-59000000D03*
X78000000Y-59000000D03*
X80000000Y-59000000D03*
X82000000Y-59000000D03*
X84000000Y-59000000D03*
X86000000Y-59000000D03*
X88000000Y-59000000D03*
D13*
X88000000Y-63000000D03*
D14*
X86000000Y-63000000D03*
X84000000Y-63000000D03*
X82000000Y-63000000D03*
X80000000Y-63000000D03*
X78000000Y-63000000D03*
X76000000Y-63000000D03*
X74000000Y-63000000D03*
X72000000Y-63000000D03*
X70000000Y-63000000D03*
X68000000Y-63000000D03*
X66000000Y-63000000D03*
X64000000Y-63000000D03*
X62000000Y-63000000D03*
X60000000Y-63000000D03*
X58000000Y-63000000D03*
X56000000Y-63000000D03*
X54000000Y-63000000D03*
X52000000Y-63000000D03*
X50000000Y-63000000D03*
X48000000Y-63000000D03*
X46000000Y-63000000D03*
X44000000Y-63000000D03*
X42000000Y-63000000D03*
X40000000Y-63000000D03*
X88000000Y-61000000D03*
X86000000Y-61000000D03*
X84000000Y-61000000D03*
X82000000Y-61000000D03*
X80000000Y-61000000D03*
X78000000Y-61000000D03*
X76000000Y-61000000D03*
X74000000Y-61000000D03*
X72000000Y-61000000D03*
X70000000Y-61000000D03*
X68000000Y-61000000D03*
X66000000Y-61000000D03*
X64000000Y-61000000D03*
X62000000Y-61000000D03*
X60000000Y-61000000D03*
X58000000Y-61000000D03*
X56000000Y-61000000D03*
X54000000Y-61000000D03*
X52000000Y-61000000D03*
X50000000Y-61000000D03*
X48000000Y-61000000D03*
X46000000Y-61000000D03*
X44000000Y-61000000D03*
X42000000Y-61000000D03*
X40000000Y-61000000D03*
D15*
X87630000Y-52578000D03*
D16*
X87630000Y-55118000D03*
D17*
X68580000Y-53340000D03*
D18*
X71120000Y-53340000D03*
X73660000Y-53340000D03*
X76200000Y-53340000D03*
D17*
X66040000Y-71120000D03*
D18*
X68580000Y-71120000D03*
X71120000Y-71120000D03*
X73660000Y-71120000D03*
X76200000Y-71120000D03*
X78740000Y-71120000D03*
D17*
X67564000Y-44450000D03*
D18*
X70104000Y-44450000D03*
X72644000Y-44450000D03*
X75184000Y-44450000D03*
X77724000Y-44450000D03*
X80264000Y-44450000D03*
X82804000Y-44450000D03*
D19*
X52000000Y-55500000D03*
X56000000Y-55500000D03*
D20*
X88000000Y-49000000D03*
X88000000Y-45000000D03*
D21*
X51600000Y-46075000D03*
X51600000Y-46725000D03*
X51600000Y-47375000D03*
X51600000Y-48025000D03*
X51600000Y-48675000D03*
X51600000Y-49325000D03*
X51600000Y-49975000D03*
X51600000Y-50625000D03*
X51600000Y-51275000D03*
X51600000Y-51925000D03*
X57400000Y-51925000D03*
X57400000Y-51275000D03*
X57400000Y-50625000D03*
X57400000Y-49975000D03*
X57400000Y-49325000D03*
X57400000Y-48675000D03*
X57400000Y-48025000D03*
X57400000Y-47375000D03*
X57400000Y-46725000D03*
X57400000Y-46075000D03*
D22*
X84988400Y-56565800D03*
X53390800Y-46482000D03*
X50419000Y-56845200D03*
X56032400Y-57124600D03*
X69748400Y-56667400D03*
X57912000Y-55473600D03*
X87985600Y-47396400D03*
X59182000Y-51917600D03*
X52019200Y-53949600D03*
X48768000Y-53695600D03*
X48844200Y-46329600D03*
X54305200Y-43738800D03*
X63804800Y-46761400D03*
X63804800Y-53695600D03*
D23*
X86000000Y-67000000D02*
X86000000Y-66772200D01*
X86000000Y-66772200D02*
X84988400Y-65760600D01*
X84988400Y-65760600D02*
X84988400Y-56565800D01*
X53390800Y-46482000D02*
X53147800Y-46725000D01*
X53147800Y-46725000D02*
X51600000Y-46725000D01*
X51600000Y-46725000D02*
X52465400Y-46725000D01*
X50107600Y-45161200D02*
X48844200Y-43897800D01*
X52146200Y-45161200D02*
X50107600Y-45161200D01*
X52781200Y-45796200D02*
X52146200Y-45161200D01*
X52781200Y-46409200D02*
X52781200Y-45796200D01*
X52465400Y-46725000D02*
X52781200Y-46409200D01*
X56000000Y-55500000D02*
X56000000Y-57092200D01*
X50292000Y-53233000D02*
X51600000Y-51925000D01*
X50292000Y-56718200D02*
X50292000Y-53233000D01*
X50419000Y-56845200D02*
X50292000Y-56718200D01*
X56000000Y-57092200D02*
X56032400Y-57124600D01*
X56000000Y-55500000D02*
X57885600Y-55500000D01*
X71018400Y-60018400D02*
X72000000Y-61000000D01*
X71018400Y-57962800D02*
X71018400Y-60018400D01*
X70231000Y-57175400D02*
X71018400Y-57962800D01*
X70231000Y-57150000D02*
X70231000Y-57175400D01*
X69748400Y-56667400D02*
X70231000Y-57150000D01*
X57885600Y-55500000D02*
X57912000Y-55473600D01*
X56000000Y-55500000D02*
X56000000Y-56191800D01*
X51600000Y-51925000D02*
X51600000Y-52108000D01*
X48750000Y-51250000D02*
X49802200Y-51250000D01*
X49802200Y-51250000D02*
X50477200Y-51925000D01*
X50477200Y-51925000D02*
X51600000Y-51925000D01*
X51600000Y-46075000D02*
X51003800Y-46075000D01*
X41017400Y-63982600D02*
X40000000Y-65000000D01*
X46685200Y-63982600D02*
X41017400Y-63982600D01*
X47015400Y-63652400D02*
X46685200Y-63982600D01*
X47015400Y-50190400D02*
X47015400Y-63652400D01*
X47675800Y-49530000D02*
X47015400Y-50190400D01*
X49784000Y-49530000D02*
X47675800Y-49530000D01*
X50419000Y-48895000D02*
X49784000Y-49530000D01*
X50419000Y-46659800D02*
X50419000Y-48895000D01*
X51003800Y-46075000D02*
X50419000Y-46659800D01*
X59080400Y-57683400D02*
X59080400Y-57632600D01*
X58191400Y-53746400D02*
X56845200Y-53746400D01*
X54502000Y-48025000D02*
X51600000Y-48025000D01*
X56540400Y-53746400D02*
X56845200Y-53746400D01*
X55397400Y-52603400D02*
X56540400Y-53746400D01*
X55397400Y-48920400D02*
X55397400Y-52603400D01*
X54502000Y-48025000D02*
X55397400Y-48920400D01*
X60121800Y-53746400D02*
X58191400Y-53746400D01*
X60680598Y-54305198D02*
X60121800Y-53746400D01*
X60680598Y-56845200D02*
X60680598Y-54305198D01*
X60274198Y-57251600D02*
X60680598Y-56845200D01*
X59461400Y-57251600D02*
X60274198Y-57251600D01*
X59080400Y-57632600D02*
X59461400Y-57251600D01*
X59080400Y-59029600D02*
X59080400Y-57683400D01*
X59080400Y-57683400D02*
X59080400Y-57658000D01*
X59055000Y-62055000D02*
X60000000Y-63000000D01*
X59080400Y-59004200D02*
X59080400Y-59029600D01*
X59080400Y-59029600D02*
X59055000Y-62055000D01*
X51600000Y-49325000D02*
X53897000Y-49325000D01*
X54940200Y-61940200D02*
X56000000Y-63000000D01*
X54940200Y-57277000D02*
X54940200Y-61940200D01*
X54533800Y-56870600D02*
X54940200Y-57277000D01*
X54533800Y-49961800D02*
X54533800Y-56870600D01*
X53897000Y-49325000D02*
X54533800Y-49961800D01*
X62000000Y-63000000D02*
X62000000Y-62914400D01*
X62000000Y-62914400D02*
X60985400Y-61899800D01*
X60985400Y-61899800D02*
X60985400Y-54051200D01*
X60985400Y-54051200D02*
X60248800Y-53314600D01*
X60248800Y-53314600D02*
X56692800Y-53314600D01*
X56692800Y-53314600D02*
X55854600Y-52476400D01*
X55854600Y-52476400D02*
X55854600Y-48514000D01*
X55854600Y-48514000D02*
X54715600Y-47375000D01*
X54715600Y-47375000D02*
X51600000Y-47375000D01*
X57556400Y-54152800D02*
X59994796Y-54152800D01*
X54085200Y-48675000D02*
X54889400Y-49479200D01*
X54889400Y-49479200D02*
X54889400Y-52933600D01*
X54889400Y-52933600D02*
X56108600Y-54152800D01*
X56108600Y-54152800D02*
X57556400Y-54152800D01*
X51600000Y-48675000D02*
X54085200Y-48675000D01*
X57734200Y-56896000D02*
X56997600Y-57632600D01*
X59944000Y-56896000D02*
X57734200Y-56896000D01*
X60299600Y-56540400D02*
X59944000Y-56896000D01*
X60299600Y-54457604D02*
X60299600Y-56540400D01*
X59994796Y-54152800D02*
X60299600Y-54457604D01*
X56997600Y-57632600D02*
X56997600Y-57708800D01*
X56997600Y-57708800D02*
X56972200Y-57734200D01*
X56972200Y-57734200D02*
X56997600Y-57734200D01*
X56997600Y-61997600D02*
X58000000Y-63000000D01*
X56997600Y-57632600D02*
X56997600Y-57734200D01*
X56997600Y-57734200D02*
X56997600Y-61997600D01*
X76200000Y-53340000D02*
X83947000Y-53340000D01*
X83947000Y-53340000D02*
X85090000Y-52197000D01*
X87630000Y-55118000D02*
X86842600Y-55118000D01*
X86842600Y-55118000D02*
X85090000Y-53365400D01*
X85090000Y-53365400D02*
X85090000Y-53340000D01*
X85090000Y-53340000D02*
X85090000Y-52197000D01*
X85090000Y-52197000D02*
X85090000Y-48514000D01*
X85090000Y-48514000D02*
X88000000Y-45604000D01*
X88000000Y-45604000D02*
X88000000Y-45000000D01*
X56883300Y-52997100D02*
X56769000Y-52882800D01*
X56566400Y-46075000D02*
X56286400Y-46355000D01*
X56286400Y-46355000D02*
X56286400Y-46888400D01*
X78968600Y-70891400D02*
X78968600Y-57073800D01*
X77470000Y-55575200D02*
X78968600Y-57073800D01*
X66776600Y-55575200D02*
X77470000Y-55575200D01*
X64935100Y-52997100D02*
X66776600Y-55575200D01*
X56883300Y-52997100D02*
X64935100Y-52997100D01*
X56286400Y-46888400D02*
X56286400Y-52400200D01*
X56566400Y-46075000D02*
X57400000Y-46075000D01*
X56769000Y-52882800D02*
X56286400Y-52400200D01*
X78968600Y-70891400D02*
X78740000Y-71120000D01*
X57400000Y-47375000D02*
X64639000Y-47375000D01*
X64639000Y-47375000D02*
X67564000Y-44450000D01*
X57400000Y-48025000D02*
X58820000Y-48025000D01*
X58820000Y-48025000D02*
X58826400Y-48031400D01*
X58657400Y-48031400D02*
X58826400Y-48031400D01*
X58826400Y-48031400D02*
X67786400Y-48031400D01*
X67786400Y-48031400D02*
X70104000Y-44450000D01*
X57247600Y-48666400D02*
X70252600Y-48666400D01*
X70252600Y-48666400D02*
X72644000Y-44450000D01*
X57400000Y-49325000D02*
X72295000Y-49325000D01*
X72295000Y-49325000D02*
X75184000Y-44450000D01*
X57400000Y-49975000D02*
X74185000Y-49975000D01*
X74185000Y-49975000D02*
X77724000Y-44450000D01*
X57400000Y-50625000D02*
X76075000Y-50625000D01*
X76075000Y-50625000D02*
X80264000Y-44450000D01*
X57400000Y-51275000D02*
X77965000Y-51275000D01*
X77965000Y-51275000D02*
X82804000Y-44450000D01*
X54000000Y-63000000D02*
X53932200Y-63000000D01*
X53932200Y-63000000D02*
X53009800Y-62077600D01*
X53009800Y-62077600D02*
X53009800Y-58216800D01*
X53009800Y-58216800D02*
X54127400Y-57099200D01*
X54127400Y-57099200D02*
X54127400Y-50495200D01*
X54127400Y-50495200D02*
X53607200Y-49975000D01*
X53607200Y-49975000D02*
X51600000Y-49975000D01*
X52000000Y-63000000D02*
X51900200Y-63000000D01*
X51900200Y-63000000D02*
X51003200Y-62103000D01*
X51003200Y-62103000D02*
X51003200Y-58216800D01*
X51003200Y-58216800D02*
X51485800Y-57734200D01*
X51485800Y-57734200D02*
X52933600Y-57734200D01*
X52933600Y-57734200D02*
X53771800Y-56896000D01*
X53771800Y-56896000D02*
X53771800Y-51104800D01*
X53771800Y-51104800D02*
X53292000Y-50625000D01*
X53292000Y-50625000D02*
X51600000Y-50625000D01*
X50000000Y-63000000D02*
X50000000Y-62954000D01*
X50000000Y-62954000D02*
X49047400Y-62001400D01*
X49047400Y-62001400D02*
X49047400Y-58343800D01*
X49047400Y-58343800D02*
X49961802Y-57429398D01*
X49961802Y-57429398D02*
X52349402Y-57429398D01*
X52349402Y-57429398D02*
X53365400Y-56413400D01*
X53365400Y-56413400D02*
X53365400Y-51816000D01*
X53365400Y-51816000D02*
X52824400Y-51275000D01*
X52824400Y-51275000D02*
X51600000Y-51275000D01*
X88000000Y-49000000D02*
X88000000Y-47410800D01*
X88000000Y-47410800D02*
X87985600Y-47396400D01*
X57400000Y-51925000D02*
X59174600Y-51925000D01*
X59174600Y-51925000D02*
X59182000Y-51917600D01*
X52000000Y-55500000D02*
X52000000Y-53968800D01*
X52000000Y-53968800D02*
X52019200Y-53949600D01*
X48750000Y-55250000D02*
X48750000Y-53713600D01*
X48750000Y-53713600D02*
X48768000Y-53695600D01*
X48844200Y-47897800D02*
X48844200Y-46329600D01*
X52750000Y-43750000D02*
X54294000Y-43750000D01*
X54294000Y-43750000D02*
X54305200Y-43738800D01*
X87630000Y-52578000D02*
X89204800Y-52578000D01*
X66903600Y-72872600D02*
X80086200Y-72872600D01*
X80086200Y-72872600D02*
X83820000Y-69138800D01*
X83820000Y-69138800D02*
X89763600Y-69138800D01*
X89763600Y-69138800D02*
X89966800Y-68427600D01*
X89966800Y-68427600D02*
X89966800Y-56184800D01*
X66903600Y-72872600D02*
X66040000Y-72009000D01*
X89966800Y-53340000D02*
X89966800Y-56184800D01*
X89204800Y-52578000D02*
X89966800Y-53340000D01*
X66040000Y-71120000D02*
X66040000Y-68961000D01*
X63768400Y-46725000D02*
X57400000Y-46725000D01*
X63804800Y-46761400D02*
X63768400Y-46725000D01*
X65024000Y-54914800D02*
X63804800Y-53695600D01*
X65024000Y-67945000D02*
X65024000Y-54914800D01*
X66040000Y-68961000D02*
X65024000Y-67945000D01*
X56750000Y-43750000D02*
X57745400Y-43750000D01*
X57745400Y-43750000D02*
X58394600Y-44399200D01*
X57973800Y-46725000D02*
X57400000Y-46725000D01*
X58394600Y-46304200D02*
X57973800Y-46725000D01*
X58394600Y-44399200D02*
X58394600Y-46304200D01*
X66040000Y-71120000D02*
X66040000Y-72009000D01*
X74000000Y-65000000D02*
X73991600Y-65000000D01*
X73991600Y-65000000D02*
X72999600Y-64008000D01*
X72999600Y-64008000D02*
X67411600Y-64008000D01*
X67411600Y-64008000D02*
X67005200Y-64414400D01*
X67005200Y-64414400D02*
X67005200Y-70154800D01*
X67005200Y-70154800D02*
X66040000Y-71120000D01*
X72000000Y-65000000D02*
X72000000Y-65142000D01*
X72000000Y-65142000D02*
X73075800Y-66217800D01*
X73075800Y-66217800D02*
X73075800Y-67995800D01*
X73075800Y-67995800D02*
X76200000Y-71120000D01*
X70000000Y-65000000D02*
X70000000Y-65224800D01*
X70000000Y-65224800D02*
X71018400Y-66243200D01*
X71018400Y-66243200D02*
X71018400Y-68478400D01*
X71018400Y-68478400D02*
X73660000Y-71120000D01*
M02*
