G04 #@! TF.FileFunction,Soldermask,Top*
%FSLAX46Y46*%
G04 Gerber Fmt 4.6, Leading zero omitted, Abs format (unit mm)*
G04 Created by KiCad (PCBNEW 4.0.4-stable) date 10/29/16 17:18:15*
%MOMM*%
%LPD*%
G01*
G04 APERTURE LIST*
%ADD10C,0.100000*%
%ADD11R,2.000000X2.400000*%
%ADD12R,2.400000X2.000000*%
%ADD13R,1.750000X1.750000*%
%ADD14C,1.750000*%
%ADD15R,2.432000X2.432000*%
%ADD16O,2.432000X2.432000*%
%ADD17R,2.127200X2.432000*%
%ADD18O,2.127200X2.432000*%
%ADD19R,2.400000X2.100000*%
%ADD20R,2.100000X2.400000*%
%ADD21R,1.400000X0.800000*%
G04 APERTURE END LIST*
D10*
D11*
X48844200Y-43897800D03*
X48844200Y-47897800D03*
X48750000Y-51250000D03*
X48750000Y-55250000D03*
D12*
X56750000Y-43750000D03*
X52750000Y-43750000D03*
D13*
X88000000Y-67000000D03*
D14*
X86000000Y-67000000D03*
X84000000Y-67000000D03*
X82000000Y-67000000D03*
X80000000Y-67000000D03*
X78000000Y-67000000D03*
X76000000Y-67000000D03*
X74000000Y-67000000D03*
X72000000Y-67000000D03*
X70000000Y-67000000D03*
X68000000Y-67000000D03*
X66000000Y-67000000D03*
X64000000Y-67000000D03*
X62000000Y-67000000D03*
X60000000Y-67000000D03*
X58000000Y-67000000D03*
X56000000Y-67000000D03*
X54000000Y-67000000D03*
X52000000Y-67000000D03*
X50000000Y-67000000D03*
X48000000Y-67000000D03*
X46000000Y-67000000D03*
X44000000Y-67000000D03*
X42000000Y-67000000D03*
X40000000Y-67000000D03*
X88000000Y-65000000D03*
X86000000Y-65000000D03*
X84000000Y-65000000D03*
X82000000Y-65000000D03*
X80000000Y-65000000D03*
X78000000Y-65000000D03*
X76000000Y-65000000D03*
X74000000Y-65000000D03*
X72000000Y-65000000D03*
X70000000Y-65000000D03*
X68000000Y-65000000D03*
X66000000Y-65000000D03*
X64000000Y-65000000D03*
X62000000Y-65000000D03*
X60000000Y-65000000D03*
X58000000Y-65000000D03*
X56000000Y-65000000D03*
X54000000Y-65000000D03*
X52000000Y-65000000D03*
X50000000Y-65000000D03*
X48000000Y-65000000D03*
X46000000Y-65000000D03*
X44000000Y-65000000D03*
X42000000Y-65000000D03*
X40000000Y-65000000D03*
X40000000Y-59000000D03*
X42000000Y-59000000D03*
X44000000Y-59000000D03*
X46000000Y-59000000D03*
X48000000Y-59000000D03*
X50000000Y-59000000D03*
X52000000Y-59000000D03*
X54000000Y-59000000D03*
X56000000Y-59000000D03*
X58000000Y-59000000D03*
X60000000Y-59000000D03*
X62000000Y-59000000D03*
X64000000Y-59000000D03*
X66000000Y-59000000D03*
X68000000Y-59000000D03*
X70000000Y-59000000D03*
X72000000Y-59000000D03*
X74000000Y-59000000D03*
X76000000Y-59000000D03*
X78000000Y-59000000D03*
X80000000Y-59000000D03*
X82000000Y-59000000D03*
X84000000Y-59000000D03*
X86000000Y-59000000D03*
X88000000Y-59000000D03*
D13*
X88000000Y-63000000D03*
D14*
X86000000Y-63000000D03*
X84000000Y-63000000D03*
X82000000Y-63000000D03*
X80000000Y-63000000D03*
X78000000Y-63000000D03*
X76000000Y-63000000D03*
X74000000Y-63000000D03*
X72000000Y-63000000D03*
X70000000Y-63000000D03*
X68000000Y-63000000D03*
X66000000Y-63000000D03*
X64000000Y-63000000D03*
X62000000Y-63000000D03*
X60000000Y-63000000D03*
X58000000Y-63000000D03*
X56000000Y-63000000D03*
X54000000Y-63000000D03*
X52000000Y-63000000D03*
X50000000Y-63000000D03*
X48000000Y-63000000D03*
X46000000Y-63000000D03*
X44000000Y-63000000D03*
X42000000Y-63000000D03*
X40000000Y-63000000D03*
X88000000Y-61000000D03*
X86000000Y-61000000D03*
X84000000Y-61000000D03*
X82000000Y-61000000D03*
X80000000Y-61000000D03*
X78000000Y-61000000D03*
X76000000Y-61000000D03*
X74000000Y-61000000D03*
X72000000Y-61000000D03*
X70000000Y-61000000D03*
X68000000Y-61000000D03*
X66000000Y-61000000D03*
X64000000Y-61000000D03*
X62000000Y-61000000D03*
X60000000Y-61000000D03*
X58000000Y-61000000D03*
X56000000Y-61000000D03*
X54000000Y-61000000D03*
X52000000Y-61000000D03*
X50000000Y-61000000D03*
X48000000Y-61000000D03*
X46000000Y-61000000D03*
X44000000Y-61000000D03*
X42000000Y-61000000D03*
X40000000Y-61000000D03*
D15*
X87630000Y-52578000D03*
D16*
X87630000Y-55118000D03*
D17*
X68580000Y-53340000D03*
D18*
X71120000Y-53340000D03*
X73660000Y-53340000D03*
X76200000Y-53340000D03*
D17*
X66040000Y-71120000D03*
D18*
X68580000Y-71120000D03*
X71120000Y-71120000D03*
X73660000Y-71120000D03*
X76200000Y-71120000D03*
X78740000Y-71120000D03*
D17*
X67564000Y-44450000D03*
D18*
X70104000Y-44450000D03*
X72644000Y-44450000D03*
X75184000Y-44450000D03*
X77724000Y-44450000D03*
X80264000Y-44450000D03*
X82804000Y-44450000D03*
D19*
X52000000Y-55500000D03*
X56000000Y-55500000D03*
D20*
X88000000Y-49000000D03*
X88000000Y-45000000D03*
D21*
X51600000Y-46075000D03*
X51600000Y-46725000D03*
X51600000Y-47375000D03*
X51600000Y-48025000D03*
X51600000Y-48675000D03*
X51600000Y-49325000D03*
X51600000Y-49975000D03*
X51600000Y-50625000D03*
X51600000Y-51275000D03*
X51600000Y-51925000D03*
X57400000Y-51925000D03*
X57400000Y-51275000D03*
X57400000Y-50625000D03*
X57400000Y-49975000D03*
X57400000Y-49325000D03*
X57400000Y-48675000D03*
X57400000Y-48025000D03*
X57400000Y-47375000D03*
X57400000Y-46725000D03*
X57400000Y-46075000D03*
M02*
